<svg id="visual" viewBox="0 0 900 600" width="900" height="600" xmlns="http://www.w3.org/2000/svg" xmlns:xlink="http://www.w3.org/1999/xlink" version="1.1"><rect x="0" y="0" width="900" height="600" fill="#001122"></rect><defs><linearGradient id="grad1_0" x1="33.3%" y1="0%" x2="100%" y2="100%"><stop offset="20%" stop-color="#001122" stop-opacity="1"></stop><stop offset="80%" stop-color="#001122" stop-opacity="1"></stop></linearGradient></defs><defs><linearGradient id="grad2_0" x1="0%" y1="0%" x2="66.7%" y2="100%"><stop offset="20%" stop-color="#001122" stop-opacity="1"></stop><stop offset="80%" stop-color="#001122" stop-opacity="1"></stop></linearGradient></defs><g transform="translate(900, 0)"><path d="M0 378.6C-37.3 335.5 -74.5 292.3 -111.7 269.8C-148.9 247.2 -186.1 245.3 -229.8 229.8C-273.5 214.4 -323.9 185.4 -349.8 144.9C-375.7 104.3 -377.1 52.2 -378.6 0L0 0Z" fill="#FF0066"></path></g><g transform="translate(0, 600)"><path d="M0 -378.6C50.4 -374.1 100.8 -369.6 144.9 -349.8C189 -329.9 226.7 -294.8 257.4 -257.4C288.1 -220 311.7 -180.3 330.7 -137C349.8 -93.7 364.2 -46.9 378.6 0L0 0Z" fill="#FF0066"></path></g></svg>